<?xml version="1.0" encoding="utf-8"?>
<!-- Generator: Adobe Illustrator 17.1.0, SVG Export Plug-In . SVG Version: 6.00 Build 0)  -->
<!DOCTYPE svg PUBLIC "-//W3C//DTD SVG 1.1//EN" "http://www.w3.org/Graphics/SVG/1.1/DTD/svg11.dtd">
<svg version="1.1" id="Layer_1" xmlns="http://www.w3.org/2000/svg" xmlns:xlink="http://www.w3.org/1999/xlink" x="0px" y="0px"
	 viewBox="0 0 180.7 63.5" enable-background="new 0 0 180.7 63.5" xml:space="preserve">
<g>
	<g>
		<path fill="#FFFFFF" d="M138,36.4c-0.1,2.2-1.8,4.2-4.3,4.1c-1.6-0.1-2.2-0.5-2.2-2c0.1-2.8,4.6-4.2,6.6-4.3L138,36.4z
			 M148.8,40.8c0-0.9-0.5-1.9-1.2-2c-1-0.1-1.5,1.6-2.6,1.5c-1-0.1-1.2-1.1-1.1-2l0.4-7.5c0.3-5.6-1.8-8.5-7.6-8.8
			c-6.3-0.3-10.9,3.4-11.1,6.9c-0.1,1.6,0.2,2.7,2.7,2.7c2,0.1,2.8-1.7,3.4-4.1c1-1.1,2.2-1.7,3.9-1.6c2,0.1,2.9,1.3,2.8,2.8
			l-0.1,2.4c-4.3,0.9-6.8,1.5-8.7,2.4c-3.1,1.6-4.6,3.9-4.8,6.5c-0.1,3,2.5,5.2,5.4,5.3c2.6,0.1,5-0.7,7.8-3.2
			c1.4,2.3,3.3,3,4.7,3.1C145.7,45.2,148.7,43.2,148.8,40.8z M86.8,41l-1.9,0.3c-0.9,0.1-1.8,0.5-1.8,1.8c0,0.9,0.5,1.5,1.4,1.5h9.9
			c1.4,0,2-0.8,2-1.6c0-1.2-1.2-1.8-3.2-2V30.3c0-4.9-2.2-8.9-8.7-8.9c-3.7,0-5.8,2.1-7.4,4c-0.1-3.8,0-4.1-1.2-4.1
			c-0.8,0-3.2,2-5.8,3.7c-1,0.6-1.6,1.1-1.6,1.8c0,0.7,0.5,1.6,1.6,1.5H71v12.5c-2,0.3-3.3,1.4-3.3,2.2c0,0.8,0.4,1.5,1.3,1.5h10.6
			c0.8,0,1.4-0.5,1.4-1.5c0-1.4-0.9-1.7-1.8-1.8l-2-0.3l0.1-11.7c2-2,3.7-3,5.8-3c2.7,0,3.8,1.7,3.8,4.5L86.8,41L86.8,41z
			 M31.8,23.7c0,4.4-3.7,6.2-9.9,6.2h-3.3v-0.5c0-0.1,0.1-3.3,0.1-9.7c0-0.9,0.2-1.5,0.5-1.6c0.1,0,0.5-0.1,2.7-0.1
			c3.1,0,5.4,0.3,6.9,1C30.8,19.7,31.8,21.2,31.8,23.7z M24.6,48.1h-6.1V33.4h4.8c6.4,0,11.1,1.9,11.1,7.6
			C34.3,47.3,28.7,48.1,24.6,48.1z M42.4,39.9c0-6.2-5.1-8.6-8.2-9.4c2.2-0.8,5.2-2.9,5.2-7.1c0-3.3-1.9-5.8-5.6-7.4
			c-2.8-1.2-5.8-1.8-9.2-1.8c-1.2,0-13.2,0.1-15.2,0.2C6.3,14.5,5,15,5,16.6c0,1.4,1,1.9,2.8,2l2.9,0.1l-0.4,29.4
			c-0.7,0-2.4,0-3.5,0.1c-1,0.1-2.9,0.6-2.9,2c0,1,0.6,2,3.5,2h17c4.6,0,8.6-0.7,11.7-2.4C40.3,47.7,42.4,44.3,42.4,39.9z
			 M166.7,47.9c-1.2-0.1-2.4,0.1-3.3,0.6c-1.2,0.7-1.9,1.7-2,2.9c-0.2,1.6,0,4.2,3.9,4.8c0.3,0.1,0.6,0.1,0.9,0.1
			c2.2,0,4.5-1.2,4.8-3.6c0.2-1.3-0.2-2.4-1.2-3.3C168.9,48.5,167.9,48.1,166.7,47.9z M175.6,17c0.9-3.8,0.4-7.5-4.4-8.2
			c-1.6-0.2-3.1,0.2-4.3,1.2c-1.2,1-1.8,2.4-1.8,4.1l0.1,22c0,5.8-0.1,8,1.5,8.2c0.2,0.1,0.4,0.1,0.5,0.1c0.9,0,1.4-0.4,1.7-0.7
			c0.2-0.3,0.4-0.7,0.6-1.8v-0.1c0-0.1,0.1-0.3,0.3-1.1L175.6,17z M160.5,44.7c1.3,0,2.2-0.3,2.2-1.6c0-1.3-1.7-2-4.1-2.4l0.3-17.2
			c0-0.2,0-0.5-0.1-0.9v-0.1l-0.1-0.1c-0.2-0.4-0.7-0.6-1.3-0.6c-1,0-2,0.6-3.7,1.4c-2.2,1.1-4.6,1.8-4.6,3.3c0,0.7,0.5,1.4,1.8,1.6
			l1.6,0.3l-0.1,12.6c-2.5,0.3-4.1,1-4.1,2.2c0,1.1,0.8,1.6,2.7,1.6L160.5,44.7L160.5,44.7z M155,19.8c2.7,0,3.7-1.8,3.7-3.3
			c0-1.3-1.1-3.1-3.7-3.1c-2.6,0-3.7,1.8-3.7,3.1C151.2,17.9,152.3,19.8,155,19.8z M119.6,21.6l-15.7-0.5c0-1.6-0.5-2.4-1.6-2.6
			c-1-0.2-1.4,0.3-1.9,0.8c-1.9,2.9-2.9,5.2-2.9,7.3c0,1.2,0.2,1.8,0.9,1.8c1.7,0.2,2.8-1.2,3.4-1.6c1.2-1,2.7-1.6,4.4-1.8l7.9,0.2
			L99,42.8c-1.4,1.6-1.8,2.3-1.8,3.6c0,1.2,1,2.2,3.4,2.1l19.3-0.4c1.5,0,2.9-0.4,2.9-2.2l0.1-4.7c0.1-1.2-0.5-1.9-1.8-1.9
			c-1.6,0.1-2.1,2.7-2.5,4.3L107,43.9l15-17.7C123.6,24.2,123.4,21.7,119.6,21.6z M57.2,36c-0.1,2.2-1.8,4.3-4.2,4.2
			c-1.6-0.1-2.2-0.5-2.2-2c0.1-2.8,4.6-4.3,6.5-4.4L57.2,36z M68,40.3c0-0.9-0.5-2-1.2-2c-1,0-1.5,1.6-2.6,1.6c-1-0.1-1.2-1.1-1.2-2
			l0.3-7.6c0.3-5.5-2-8.4-7.7-8.6c-6.3-0.2-10.9,3.6-11,7c-0.1,1.6,0.2,2.6,2.7,2.7c2,0.1,2.7-1.8,3.3-4.2c1-1.1,2.2-1.7,3.9-1.7
			c1.9,0.1,2.9,1.3,2.8,2.8l-0.1,2.4c-4.3,1-6.8,1.6-8.7,2.5c-3.1,1.7-4.6,3.9-4.6,6.5c-0.1,3,2.6,5.1,5.5,5.2
			c2.6,0.1,5-0.8,7.7-3.3c1.4,2.3,3.3,3,4.8,3.1C65,44.7,68,42.8,68,40.3z"/>
	</g>
</g>
</svg>
